<?xml version="1.0" encoding="utf-8"?>
<!-- Generator: Adobe Illustrator 19.2.1, SVG Export Plug-In . SVG Version: 6.00 Build 0)  -->
<svg version="1.1" id="layer" xmlns="http://www.w3.org/2000/svg" xmlns:xlink="http://www.w3.org/1999/xlink" x="0px" y="0px"
	 viewBox="0 0 652 652" style="enable-background:new 0 0 652 652;" xml:space="preserve">
<style type="text/css">
	.st0{fill:#FF277E;}
</style>
<path id="Combined-Shape" class="st0" d="M337.9,275.7c7.1,0,13,2.9,13,9.2c0,3.8-2.9,6.7-6.3,6.7c-1.7,0-2.9-0.4-4.2-0.4
	c-2.9,0-4.2,1.7-4.2,4.6v8.4h5.9c5.9,0,8.8,1.7,8.8,6.3c0,4.6-2.9,6.3-8.8,6.3h-5.9v49c0,6.3-3.8,9.6-9.6,9.6
	c-5.9,0-9.6-3.4-9.6-9.6v-48.6h-5.4c-5.4,0-8-2.1-8-6.3c0-4.2,2.1-6.3,8-6.3h4.6v-10.1C316.1,282.4,326.2,275.7,337.9,275.7z
	 M517.6,302.5c13.4,0,24.7,6.3,24.7,23.9v40.2c0,5-2.1,9.6-9.6,9.6c-7.5,0-9.6-4.6-9.6-9.6v-35.2c0-7.1-2.9-12.6-10.9-12.6
	c-7.5,0-14.2,5.9-14.2,15.1v32.7c0,5-2.1,9.6-9.6,9.6c-7.5,0-9.6-4.6-9.6-9.6v-35.2c0-7.1-2.9-12.6-10.9-12.6
	c-7.5,0-14.2,5.9-14.2,15.1v32.7c0,5-2.1,9.6-9.6,9.6s-9.6-4.6-9.6-9.6v-54c0-5.9,3.4-9.6,9.2-9.6c5.9,0,9.2,3.8,9.2,9.6v2.5h0.4
	c5-8,13.8-12.1,23.9-12.1c6.7,0,15.1,2.9,18.9,12.1C500,307.6,507.1,302.5,517.6,302.5z M269.6,302.5c13.4,0,24.7,6.3,24.7,23.9
	v40.2c0,5-2.1,9.6-9.6,9.6c-7.5,0-9.6-4.6-9.6-9.6v-35.2c0-7.1-2.9-12.6-10.9-12.6c-7.5,0-14.2,5.9-14.2,15.1v32.7
	c0,5-2.1,9.6-9.6,9.6s-9.6-4.6-9.6-9.6v-35.2c0-7.1-2.9-12.6-10.9-12.6c-7.5,0-14.2,5.9-14.2,15.1v32.7c0,5-2.1,9.6-9.6,9.6
	s-9.6-4.6-9.6-9.6v-54c0-5.9,3.4-9.6,9.2-9.6c5.9,0,9.2,3.8,9.2,9.6v2.5h0.4c5-8,13.8-12.1,23.9-12.1c6.7,0,15.1,2.9,18.9,12.1
	C252,307.6,259.1,302.5,269.6,302.5z M63.5,302.5c16.3,0,28.5,9.2,28.5,18.4c0,5.4-4.2,8.4-9.2,8.4c-9.2,0-5.9-11.7-20.1-11.7
	c-7.5,0-16.8,5-16.8,23c0,12.1,5.9,20.1,16.8,20.1c13.8,0,10.9-12.6,20.9-12.6c5,0,8.4,3.8,8.4,7.5c0,8.4-9.6,20.5-29.7,20.5
	c-24.3,0-35.6-15.1-35.6-35.2C26.6,318.5,39.6,302.5,63.5,302.5z M139.3,301.3c8.8,0.4,17.2,4.2,23.9,10.9
	c7.1,7.1,10.9,16.8,10.9,26.4c0,9.6-3.8,19.3-10.9,26.4c-7.1,7.1-16.8,10.9-26.4,10.9l0,0c-9.6,0-19.3-3.8-26.4-10.9
	c-7.1-7.1-10.9-16.8-10.9-26.4c0-9.6,3.8-19.3,10.9-26.4c3.4-3.4,8.8-3.4,12.1,0s3.4,8.8,0,12.1c-4.2,3.8-5.9,9.2-5.9,14.2
	s2.1,10.5,5.9,14.2c4.2,3.8,9.2,5.9,14.2,5.9c5.4,0,10.5-2.1,14.2-5.9c4.2-3.8,5.9-9.2,5.9-14.2s-2.1-10.5-5.9-14.2
	c-3.8-3.8-8.4-5.4-13-5.9s-8.4-4.2-8-9.2C130.5,304.6,134.3,301.3,139.3,301.3z M589.7,303c2.9,0,5.9,1.7,7.5,4.6l28.5,56.1l0,0
	c2.1,4.2,0.4,8.8-3.8,10.9c-1.3,0.4-2.5,0.8-3.8,0.8c-2.9,0-5.9-1.7-7.5-4.6l-20.9-41.5l-15.1,29.7h18c4.6,0,8.4,3.8,8.4,8
	c0,4.6-3.8,8-8.4,8h-31.4c-2.9,0-5.4-1.3-7.1-3.8s-1.7-5.4-0.4-8l28.1-56.1C583.4,304.6,586.3,303,589.7,303z M393.2,307.1
	l28.1,56.6c1.3,2.5,1.3,5.4-0.4,8s-4.2,3.8-7.1,3.8h-56.6c-2.9,0-5.4-1.3-7.1-3.8s-1.7-5.4-0.4-8l15.9-31.4
	c2.1-4.2,7.1-5.9,10.9-3.8c4.2,2.1,5.9,7.1,3.8,10.9l-9.6,19.3h29.7l-21.8-44l0,0c-2.1-4.2-0.4-8.8,3.8-10.9
	C386.1,301.7,391.1,303.4,393.2,307.1z"/>
</svg>
